<svg width="1080" height="953" viewBox="0 0 1080 953" fill="none" xmlns="http://www.w3.org/2000/svg">
<path d="M518.5 307L425 408V619L650 618C650 618 687.07 622.285 691.629 578.047C693.129 568.797 692.152 557.919 697.379 547.797C702.755 537.388 708.798 519.566 707.956 508.846C707.104 498.005 710.259 484 714.129 479.547C732.374 458.552 735 417 695.5 413C667.463 410.161 618.769 408.581 574.988 408.082C568.328 408.006 614.33 339.348 617.968 294.116C620.25 265.75 597.25 252.75 579.802 257.874C553.838 265.499 518.5 307 518.5 307Z" stroke="#F2EDF1" stroke-width="9"/>
<path d="M407.75 408.625H344.875L345 619H407L407.75 408.625Z" stroke="#F2EDF1" stroke-width="9"/>
</svg>
